<?xml version="1.0" standalone="no"?><!DOCTYPE svg PUBLIC "-//W3C//DTD SVG 1.1//EN" "http://www.w3.org/Graphics/SVG/1.1/DTD/svg11.dtd"><svg class="icon" width="200px" height="200.00px" viewBox="0 0 1024 1024" version="1.1" xmlns="http://www.w3.org/2000/svg"><path d="M588.760756 774.738983c-12.232602 0-24.325012-5.54939-32.263821-16.071024L384.879276 531.125593c-11.063987-14.667048-10.836813-34.969443 0.592494-49.382711l171.616636-216.645179c13.837146-17.485233 39.244816-20.425192 56.729026-6.578836 17.466814 13.845333 20.415982 39.251979 6.578836 56.729026L468.147748 507.419681l152.824641 202.616674c13.43601 17.798365 9.875928 43.134403-7.922437 56.55404C605.774245 772.086573 597.222475 774.738983 588.760756 774.738983L588.760756 774.738983zM588.760756 774.738983" fill="#ffffff" /><path d="M511.999488 958.708971c-60.288085 0-118.779244-11.813047-173.885306-35.124985-53.203736-22.49227-100.963483-54.704926-141.986805-95.710852-41.024345-41.006949-73.219605-88.784092-95.710852-141.987828C77.103564 630.79664 65.290517 572.288085 65.290517 512s11.813047-118.788453 35.126009-173.894516c22.491247-53.194526 54.686507-100.962459 95.710852-141.978618 41.023322-41.015136 88.783069-73.218582 141.986805-95.719038 55.106062-23.303752 113.597221-35.116799 173.885306-35.116799s118.79664 11.813047 173.901679 35.116799c53.187363 22.500457 100.963483 54.703903 141.970432 95.719038 41.005926 41.016159 73.218582 88.784092 95.709829 141.978618 23.312962 55.106062 35.126009 113.606431 35.126009 173.894516s-11.813047 118.79664-35.126009 173.885306c-22.491247 53.203736-54.703903 100.980879-95.709829 141.987828-41.006949 41.005926-88.784092 73.218582-141.970432 95.710852C630.796128 946.895925 572.287573 958.708971 511.999488 958.708971L511.999488 958.708971zM511.999488 146.056494c-201.786773 0-365.93532 164.156734-365.93532 365.943506s164.147524 365.952716 365.93532 365.952716 365.93532-164.165943 365.93532-365.952716S713.786261 146.056494 511.999488 146.056494L511.999488 146.056494zM511.999488 146.056494" fill="#ffffff" /></svg>